<?xml version="1.0" encoding="UTF-8" standalone="no"?>
<svg
   xmlns:dc="http://purl.org/dc/elements/1.1/"
   xmlns:cc="http://creativecommons.org/ns#"
   xmlns:rdf="http://www.w3.org/1999/02/22-rdf-syntax-ns#"
   xmlns:svg="http://www.w3.org/2000/svg"
   xmlns="http://www.w3.org/2000/svg"
   xmlns:sodipodi="http://sodipodi.sourceforge.net/DTD/sodipodi-0.dtd"
   xmlns:inkscape="http://www.inkscape.org/namespaces/inkscape"
   aria-label="Discord"
   role="img"
   viewBox="0 0 512 512"
   fill="#7289da"
   version="1.1"
   id="svg893"
   sodipodi:docname="discord.svg"
   inkscape:version="0.92.4 (5da689c313, 2019-01-14)">
  <metadata
     id="metadata899">
    <rdf:RDF>
      <cc:Work
         rdf:about="">
        <dc:format>image/svg+xml</dc:format>
        <dc:type
           rdf:resource="http://purl.org/dc/dcmitype/StillImage" />
      </cc:Work>
    </rdf:RDF>
  </metadata>
  <defs
     id="defs897" />
  <sodipodi:namedview
     pagecolor="#ffffff"
     bordercolor="#666666"
     borderopacity="1"
     objecttolerance="10"
     gridtolerance="10"
     guidetolerance="10"
     inkscape:pageopacity="0"
     inkscape:pageshadow="2"
     inkscape:window-width="1920"
     inkscape:window-height="1057"
     id="namedview895"
     showgrid="false"
     inkscape:zoom="1.3037281"
     inkscape:cx="267.65181"
     inkscape:cy="235.7885"
     inkscape:window-x="1912"
     inkscape:window-y="-8"
     inkscape:window-maximized="1"
     inkscape:current-layer="svg893" />
  <path
     style="opacity:1;fill:#000000;fill-opacity:0.98532493;stroke:#000000;stroke-width:5.12478352;stroke-miterlimit:4;stroke-dasharray:none;stroke-opacity:1;paint-order:fill markers stroke"
     d="M 157.90816,391.5725 C 131.62826,389.70695 108.19523,381.00454 89.701274,366.24226 82.172834,360.2329 75.085006,352.79289 70.530092,346.1185 l -1.520298,-2.22771 0.18797,-7.3994 c 0.414817,-16.32917 1.670532,-31.17213 3.98705,-47.12822 6.155277,-42.39732 20.051528,-87.80798 38.265006,-125.04377 l 3.52829,-7.21326 4.10909,-2.72521 c 12.91572,-8.56588 25.33296,-14.92316 39.49893,-20.22236 14.34454,-5.36599 31.67938,-9.30945 43.25423,-9.83981 l 3.25424,-0.1491 1.22034,1.69507 c 0.67119,0.93228 1.25908,1.78994 1.30643,1.90589 0.0474,0.11595 -0.62383,0.40889 -1.49152,0.65096 -4.10066,1.14402 -13.4274,4.13446 -18.09455,5.80168 -22.02797,7.86889 -42.25792,18.62063 -56.70341,30.13652 -3.12015,2.48736 -6.95089,5.95017 -6.1017,5.51562 0.22373,-0.11448 1.84453,-1.10667 3.60178,-2.20486 27.83921,-17.39815 67.50584,-27.98408 113.13488,-30.19258 8.57726,-0.41515 31.92718,-0.17664 39.46673,0.40314 27.14867,2.08769 48.38792,6.14592 69.01695,13.18724 13.99065,4.77543 27.74587,11.64499 36.17812,18.06788 0.65727,0.50066 1.25776,0.84758 1.3344,0.77094 0.68659,-0.68659 -9.90452,-8.49246 -18.66506,-13.75655 -14.39504,-8.64976 -30.96997,-16.37799 -47.75481,-22.26615 -4.41016,-1.54709 -14.65641,-4.72166 -18.11019,-5.61104 -0.65288,-0.16811 -1.07999,-0.39817 -0.94916,-0.51124 0.13084,-0.11306 1.17406,-0.95842 2.31827,-1.87856 2.07912,-1.67199 2.08145,-1.67299 3.87612,-1.67299 2.44071,0 8.63964,0.69389 13.56892,1.51888 24.42004,4.08702 50.06248,14.59849 71.98067,29.50666 l 2.82809,1.92361 3.45063,7.05085 c 5.52429,11.28807 10.0445,21.83762 14.75699,34.44067 17.04822,45.59377 26.57226,92.99938 27.43553,136.55977 l 0.17502,8.83095 -1.4115,2.09175 c -2.12743,3.15271 -5.45491,7.18831 -8.77223,10.63902 -18.0093,18.73349 -42.64499,30.56588 -70.81616,34.01264 -4.5699,0.55912 -11.32599,1.07485 -14.17472,1.08202 l -1.66634,0.004 -10.26587,-12.22082 c -5.64623,-6.72145 -10.29977,-12.31468 -10.3412,-12.42939 -0.0414,-0.11472 0.4467,-0.35818 1.08474,-0.54103 20.26202,-5.80678 38.13253,-16.95088 50.11962,-31.25474 2.5155,-3.00169 5.61315,-7.28283 5.26956,-7.28283 -0.0882,0 -1.15967,0.86869 -2.38115,1.93042 -22.89362,19.89989 -62.12626,32.54463 -108.52591,34.97807 -6.81492,0.35741 -27.44131,0.18044 -33.22034,-0.28502 -31.53312,-2.53977 -56.41678,-8.62154 -77.77742,-19.00942 -10.00702,-4.86652 -19.40921,-10.97054 -25.35897,-16.46338 -0.71823,-0.66307 -1.36932,-1.14214 -1.44687,-1.06459 -0.0776,0.0776 0.48272,1.06531 1.24504,2.19502 8.01186,11.87306 22.86796,23.52961 39.43502,30.94191 4.22038,1.88825 13.07039,5.28076 13.79898,5.28962 1.43149,0.0174 0.92381,0.65071 -10.24324,12.77796 l -11.32855,12.30263 -2.46708,0.0337 c -1.3569,0.0186 -3.93149,-0.0702 -5.72132,-0.19728 z m 45.77463,-78.43899 c 12.5692,-3.2857 22.0619,-13.71834 24.79155,-27.24635 0.66474,-3.2944 0.65694,-10.69163 -0.0146,-13.87992 -2.86548,-13.6039 -12.28428,-23.93786 -24.71585,-27.11732 -11.64582,-2.9785 -24.2165,1.10557 -32.13216,10.43935 -3.38339,3.98952 -5.52159,7.86582 -7.03072,12.74576 -6.31038,20.40542 5.89524,41.74497 26.06883,45.57714 3.19117,0.60619 9.72455,0.34619 13.03298,-0.51866 z m 115.98808,0.006 c 12.61643,-3.37898 21.88152,-13.43788 24.71404,-26.83146 0.83723,-3.95881 0.84076,-10.58407 0.008,-14.48734 -1.50918,-7.07156 -4.47062,-12.81376 -9.12166,-17.68682 -3.67699,-3.85249 -8.14096,-6.76314 -13.07484,-8.52519 -6.04604,-2.15924 -13.60899,-2.2079 -19.97438,-0.12849 -9.93851,3.24665 -18.03528,11.55663 -21.46445,22.02965 -1.43275,4.37578 -1.85897,7.59682 -1.68424,12.72809 0.20764,6.0973 1.26537,10.41287 3.74663,15.2864 4.06788,7.98985 11.0887,14.18595 19.11477,16.8694 3.98823,1.33343 6.21792,1.64569 10.95672,1.53444 3.43092,-0.0805 4.67683,-0.22549 6.77966,-0.78868 z"
     id="path5157"
     inkscape:connector-curvature="0" />
</svg>
